# xmcd
#
# Track frame offsets:
#	182
#	16782
#	29995
#	44692
#	61220
#	76870
#	95250
#	107845
#	123862
#	139850
#	153542
#	171907
#	185245
#	204582
#	218090
#	232340
#	249762
#	261695
#
# Disc length: 3678 seconds
#
# Revision: 0
# Processed by: cddbd v1.4PL0 Copyright (c) Steve Scherf et al.
# Submitted via: audiograbber 1.81.00
#
DISCID=0a0e5c12
DTITLE=Various Artist - This Is Your Country
DYEAR=1991
DGENRE=Country
TTITLE0=Garth Brooks - If Tomorrow Never Comes
TTITLE1=Doug Stone - Fourteen Minutes Old
TTITLE2=Tanya Tucker - Don't Go Out (Duet With T. Graham Brown)
TTITLE3=Shenandoah - Next To You, Next To Me
TTITLE4=Lorrie Morgan - He Talks To Me
TTITLE5=Shelby Lynne - I'll Lie Myself To Sleep
TTITLE6=Rodney Crowell - My Past Is Present
TTITLE7=Kathy Mattea - She Came From Fort Worth
TTITLE8=Eddie Rabbitt - It's Lonely Out Tonite
TTITLE9=Ricky Van Shelton - I Meant Every Word He Said
TTITLE10=Highway 101 - This Side Of Goodbye
TTITLE11=Mary-Chapin Carpenter - Something Of A Dreamer
TTITLE12=Restless Heart - Dancy's Dream
TTITLE13=Waylon Jennings - Wrong
TTITLE14=Patty Loveless - On Down The Line
TTITLE15=Dan Seals - Love On Arrival
TTITLE16=Marty Stuart - Hillbilly Rock
TTITLE17=The Kentucky Headhunters - Oh Lonesome Me
EXTD=
EXTT0=
EXTT1=
EXTT2=
EXTT3=
EXTT4=
EXTT5=
EXTT6=
EXTT7=
EXTT8=
EXTT9=
EXTT10=
EXTT11=
EXTT12=
EXTT13=
EXTT14=
EXTT15=
EXTT16=
EXTT17=
PLAYORDER=
